<svg xmlns="http://www.w3.org/2000/svg" version="1.1" xmlns:xlink="http://www.w3.org/1999/xlink" xmlns:svgjs="http://svgjs.dev/svgjs" width="1000" height="1000"><style>
    #light-icon {
      display: inline;
    }
    #dark-icon {
      display: none;
    }

    @media (prefers-color-scheme: dark) {
      #light-icon {
        display: none;
      }
      #dark-icon {
        display: inline;
      }
    }
  </style><g id="light-icon"><svg xmlns="http://www.w3.org/2000/svg" version="1.1" xmlns:xlink="http://www.w3.org/1999/xlink" xmlns:svgjs="http://svgjs.dev/svgjs" width="1000" height="1000"><g clip-path="url(#SvgjsClipPath1104)"><rect width="1000" height="1000" fill="#ffffff"></rect><g transform="matrix(56.25,0,0,56.25,50,50)"><svg xmlns="http://www.w3.org/2000/svg" version="1.1" xmlns:xlink="http://www.w3.org/1999/xlink" xmlns:svgjs="http://svgjs.dev/svgjs" width="16px" height="16px"><svg xmlns="http://www.w3.org/2000/svg" xmlns:xlink="http://www.w3.org/1999/xlink" width="16px" height="16px" viewBox="0 0 16 16" version="1.1">
<g id="surface1">
<rect x="0" y="0" width="16" height="16" style="fill:rgb(100%,100%,100%);fill-opacity:1;stroke:none;"></rect>
<path style=" stroke:none;fill-rule:nonzero;fill:rgb(100%,40.000001%,76.862746%);fill-opacity:1;" d="M 3.75 11.25 C 3.421875 11.402344 3.074219 11.484375 2.707031 11.492188 C 2.308594 11.503906 1.957031 11.375 1.652344 11.109375 C 1.488281 10.960938 1.375 10.773438 1.316406 10.550781 C 1.261719 10.332031 1.269531 10.113281 1.339844 9.898438 C 1.367188 9.816406 1.421875 9.710938 1.507812 9.578125 C 1.59375 9.449219 1.726562 9.316406 1.898438 9.179688 C 2.074219 9.046875 2.308594 8.925781 2.605469 8.816406 C 2.902344 8.710938 3.277344 8.636719 3.734375 8.601562 C 3.789062 8.597656 3.839844 8.613281 3.882812 8.648438 C 3.921875 8.683594 3.945312 8.730469 3.953125 8.789062 C 3.957031 8.839844 3.941406 8.890625 3.90625 8.9375 C 3.867188 8.980469 3.820312 9.003906 3.765625 9.007812 C 3.222656 9.054688 2.769531 9.167969 2.410156 9.347656 C 2.050781 9.527344 1.824219 9.757812 1.730469 10.03125 C 1.679688 10.171875 1.671875 10.3125 1.710938 10.453125 C 1.75 10.59375 1.824219 10.710938 1.933594 10.804688 C 2.074219 10.9375 2.285156 11.023438 2.566406 11.066406 C 2.847656 11.113281 3.183594 11.046875 3.578125 10.875 C 4.023438 10.683594 4.441406 10.417969 4.832031 10.078125 C 5.21875 9.742188 5.578125 9.355469 5.910156 8.921875 C 6.238281 8.492188 6.542969 8.03125 6.824219 7.550781 C 7.101562 7.070312 7.355469 6.582031 7.585938 6.09375 C 7.816406 5.605469 8.023438 5.132812 8.207031 4.6875 C 8.390625 4.238281 8.558594 3.832031 8.703125 3.46875 C 8.796875 3.222656 8.882812 3.003906 8.960938 2.8125 C 9.039062 2.617188 9.105469 2.464844 9.164062 2.351562 C 9.214844 2.257812 9.292969 2.222656 9.398438 2.246094 C 9.507812 2.273438 9.5625 2.34375 9.554688 2.453125 C 9.542969 2.78125 9.519531 3.160156 9.476562 3.59375 C 9.433594 4.023438 9.382812 4.484375 9.320312 4.96875 C 9.257812 5.453125 9.1875 5.941406 9.113281 6.4375 C 9.039062 6.933594 8.960938 7.410156 8.886719 7.867188 C 8.8125 8.324219 8.738281 8.746094 8.671875 9.125 C 8.660156 9.195312 8.6875 9.242188 8.75 9.265625 C 8.8125 9.292969 8.863281 9.277344 8.898438 9.21875 C 9.164062 8.832031 9.445312 8.410156 9.738281 7.953125 C 10.035156 7.496094 10.328125 7.027344 10.621094 6.550781 C 10.917969 6.074219 11.199219 5.609375 11.46875 5.15625 C 11.742188 4.703125 11.988281 4.285156 12.207031 3.910156 C 12.429688 3.53125 12.613281 3.214844 12.757812 2.957031 C 12.90625 2.699219 13 2.527344 13.046875 2.441406 C 13.070312 2.398438 13.105469 2.363281 13.152344 2.347656 C 13.203125 2.328125 13.25 2.328125 13.296875 2.34375 C 13.351562 2.363281 13.386719 2.398438 13.410156 2.445312 C 13.433594 2.492188 13.4375 2.539062 13.425781 2.59375 C 13.386719 2.726562 13.347656 2.871094 13.304688 3.019531 C 13.265625 3.167969 13.21875 3.320312 13.175781 3.484375 C 13.085938 3.796875 12.984375 4.15625 12.867188 4.566406 C 12.753906 4.972656 12.636719 5.410156 12.519531 5.875 C 12.402344 6.339844 12.292969 6.804688 12.183594 7.273438 C 12.078125 7.742188 11.988281 8.191406 11.917969 8.625 C 11.847656 9.058594 11.804688 9.445312 11.78125 9.792969 C 11.761719 10.140625 11.777344 10.425781 11.828125 10.644531 C 11.882812 10.867188 11.976562 11 12.117188 11.046875 C 12.175781 11.0625 12.21875 11.097656 12.242188 11.144531 C 12.269531 11.195312 12.273438 11.25 12.257812 11.304688 C 12.238281 11.359375 12.203125 11.398438 12.152344 11.421875 C 12.105469 11.449219 12.054688 11.453125 12 11.4375 C 11.773438 11.371094 11.609375 11.203125 11.507812 10.9375 C 11.410156 10.671875 11.367188 10.332031 11.375 9.910156 C 11.386719 9.492188 11.4375 9.007812 11.527344 8.460938 C 11.621094 7.914062 11.742188 7.320312 11.894531 6.683594 C 12.050781 6.046875 12.222656 5.378906 12.414062 4.6875 C 12.425781 4.640625 12.410156 4.609375 12.367188 4.59375 C 12.328125 4.570312 12.292969 4.582031 12.265625 4.625 C 12.03125 5.015625 11.78125 5.433594 11.507812 5.882812 C 11.238281 6.332031 10.960938 6.785156 10.671875 7.242188 C 10.386719 7.699219 10.105469 8.140625 9.828125 8.566406 C 9.550781 8.992188 9.289062 9.382812 9.039062 9.734375 C 8.789062 10.089844 8.566406 10.386719 8.375 10.625 C 8.308594 10.703125 8.222656 10.722656 8.125 10.679688 C 8.03125 10.632812 7.996094 10.558594 8.015625 10.453125 C 8.042969 10.308594 8.082031 10.078125 8.140625 9.757812 C 8.199219 9.441406 8.265625 9.066406 8.339844 8.636719 C 8.414062 8.207031 8.492188 7.746094 8.570312 7.25 C 8.648438 6.753906 8.726562 6.25 8.800781 5.738281 C 8.875 5.222656 8.941406 4.730469 8.992188 4.257812 C 8.996094 4.210938 8.980469 4.179688 8.9375 4.171875 C 8.890625 4.160156 8.859375 4.175781 8.84375 4.21875 C 8.660156 4.679688 8.449219 5.183594 8.210938 5.722656 C 7.972656 6.261719 7.699219 6.808594 7.398438 7.359375 C 7.09375 7.910156 6.761719 8.441406 6.394531 8.949219 C 6.027344 9.457031 5.621094 9.910156 5.183594 10.308594 C 4.742188 10.707031 4.265625 11.023438 3.75 11.25 Z M 3.75 11.25 "></path>
</g>
</svg></svg></g></g><defs><clipPath id="SvgjsClipPath1104"><rect width="1000" height="1000" x="0" y="0" rx="500" ry="500"></rect></clipPath></defs></svg></g><g id="dark-icon"><svg xmlns="http://www.w3.org/2000/svg" version="1.1" xmlns:xlink="http://www.w3.org/1999/xlink" xmlns:svgjs="http://svgjs.dev/svgjs" width="1000" height="1000"><g clip-path="url(#SvgjsClipPath1105)"><rect width="1000" height="1000" fill="#ffffff"></rect><g transform="matrix(56.25,0,0,56.25,50,50)"><svg xmlns="http://www.w3.org/2000/svg" version="1.1" xmlns:xlink="http://www.w3.org/1999/xlink" xmlns:svgjs="http://svgjs.dev/svgjs" width="16px" height="16px"><svg xmlns="http://www.w3.org/2000/svg" xmlns:xlink="http://www.w3.org/1999/xlink" width="16px" height="16px" viewBox="0 0 16 16" version="1.1">
<g id="surface1">
<rect x="0" y="0" width="16" height="16" style="fill:rgb(100%,100%,100%);fill-opacity:1;stroke:none;"></rect>
<path style=" stroke:none;fill-rule:nonzero;fill:rgb(100%,40.000001%,76.862746%);fill-opacity:1;" d="M 3.75 11.25 C 3.421875 11.402344 3.074219 11.484375 2.707031 11.492188 C 2.308594 11.503906 1.957031 11.375 1.652344 11.109375 C 1.488281 10.960938 1.375 10.773438 1.316406 10.550781 C 1.261719 10.332031 1.269531 10.113281 1.339844 9.898438 C 1.367188 9.816406 1.421875 9.710938 1.507812 9.578125 C 1.59375 9.449219 1.726562 9.316406 1.898438 9.179688 C 2.074219 9.046875 2.308594 8.925781 2.605469 8.816406 C 2.902344 8.710938 3.277344 8.636719 3.734375 8.601562 C 3.789062 8.597656 3.839844 8.613281 3.882812 8.648438 C 3.921875 8.683594 3.945312 8.730469 3.953125 8.789062 C 3.957031 8.839844 3.941406 8.890625 3.90625 8.9375 C 3.867188 8.980469 3.820312 9.003906 3.765625 9.007812 C 3.222656 9.054688 2.769531 9.167969 2.410156 9.347656 C 2.050781 9.527344 1.824219 9.757812 1.730469 10.03125 C 1.679688 10.171875 1.671875 10.3125 1.710938 10.453125 C 1.75 10.59375 1.824219 10.710938 1.933594 10.804688 C 2.074219 10.9375 2.285156 11.023438 2.566406 11.066406 C 2.847656 11.113281 3.183594 11.046875 3.578125 10.875 C 4.023438 10.683594 4.441406 10.417969 4.832031 10.078125 C 5.21875 9.742188 5.578125 9.355469 5.910156 8.921875 C 6.238281 8.492188 6.542969 8.03125 6.824219 7.550781 C 7.101562 7.070312 7.355469 6.582031 7.585938 6.09375 C 7.816406 5.605469 8.023438 5.132812 8.207031 4.6875 C 8.390625 4.238281 8.558594 3.832031 8.703125 3.46875 C 8.796875 3.222656 8.882812 3.003906 8.960938 2.8125 C 9.039062 2.617188 9.105469 2.464844 9.164062 2.351562 C 9.214844 2.257812 9.292969 2.222656 9.398438 2.246094 C 9.507812 2.273438 9.5625 2.34375 9.554688 2.453125 C 9.542969 2.78125 9.519531 3.160156 9.476562 3.59375 C 9.433594 4.023438 9.382812 4.484375 9.320312 4.96875 C 9.257812 5.453125 9.1875 5.941406 9.113281 6.4375 C 9.039062 6.933594 8.960938 7.410156 8.886719 7.867188 C 8.8125 8.324219 8.738281 8.746094 8.671875 9.125 C 8.660156 9.195312 8.6875 9.242188 8.75 9.265625 C 8.8125 9.292969 8.863281 9.277344 8.898438 9.21875 C 9.164062 8.832031 9.445312 8.410156 9.738281 7.953125 C 10.035156 7.496094 10.328125 7.027344 10.621094 6.550781 C 10.917969 6.074219 11.199219 5.609375 11.46875 5.15625 C 11.742188 4.703125 11.988281 4.285156 12.207031 3.910156 C 12.429688 3.53125 12.613281 3.214844 12.757812 2.957031 C 12.90625 2.699219 13 2.527344 13.046875 2.441406 C 13.070312 2.398438 13.105469 2.363281 13.152344 2.347656 C 13.203125 2.328125 13.25 2.328125 13.296875 2.34375 C 13.351562 2.363281 13.386719 2.398438 13.410156 2.445312 C 13.433594 2.492188 13.4375 2.539062 13.425781 2.59375 C 13.386719 2.726562 13.347656 2.871094 13.304688 3.019531 C 13.265625 3.167969 13.21875 3.320312 13.175781 3.484375 C 13.085938 3.796875 12.984375 4.15625 12.867188 4.566406 C 12.753906 4.972656 12.636719 5.410156 12.519531 5.875 C 12.402344 6.339844 12.292969 6.804688 12.183594 7.273438 C 12.078125 7.742188 11.988281 8.191406 11.917969 8.625 C 11.847656 9.058594 11.804688 9.445312 11.78125 9.792969 C 11.761719 10.140625 11.777344 10.425781 11.828125 10.644531 C 11.882812 10.867188 11.976562 11 12.117188 11.046875 C 12.175781 11.0625 12.21875 11.097656 12.242188 11.144531 C 12.269531 11.195312 12.273438 11.25 12.257812 11.304688 C 12.238281 11.359375 12.203125 11.398438 12.152344 11.421875 C 12.105469 11.449219 12.054688 11.453125 12 11.4375 C 11.773438 11.371094 11.609375 11.203125 11.507812 10.9375 C 11.410156 10.671875 11.367188 10.332031 11.375 9.910156 C 11.386719 9.492188 11.4375 9.007812 11.527344 8.460938 C 11.621094 7.914062 11.742188 7.320312 11.894531 6.683594 C 12.050781 6.046875 12.222656 5.378906 12.414062 4.6875 C 12.425781 4.640625 12.410156 4.609375 12.367188 4.59375 C 12.328125 4.570312 12.292969 4.582031 12.265625 4.625 C 12.03125 5.015625 11.78125 5.433594 11.507812 5.882812 C 11.238281 6.332031 10.960938 6.785156 10.671875 7.242188 C 10.386719 7.699219 10.105469 8.140625 9.828125 8.566406 C 9.550781 8.992188 9.289062 9.382812 9.039062 9.734375 C 8.789062 10.089844 8.566406 10.386719 8.375 10.625 C 8.308594 10.703125 8.222656 10.722656 8.125 10.679688 C 8.03125 10.632812 7.996094 10.558594 8.015625 10.453125 C 8.042969 10.308594 8.082031 10.078125 8.140625 9.757812 C 8.199219 9.441406 8.265625 9.066406 8.339844 8.636719 C 8.414062 8.207031 8.492188 7.746094 8.570312 7.25 C 8.648438 6.753906 8.726562 6.25 8.800781 5.738281 C 8.875 5.222656 8.941406 4.730469 8.992188 4.257812 C 8.996094 4.210938 8.980469 4.179688 8.9375 4.171875 C 8.890625 4.160156 8.859375 4.175781 8.84375 4.21875 C 8.660156 4.679688 8.449219 5.183594 8.210938 5.722656 C 7.972656 6.261719 7.699219 6.808594 7.398438 7.359375 C 7.09375 7.910156 6.761719 8.441406 6.394531 8.949219 C 6.027344 9.457031 5.621094 9.910156 5.183594 10.308594 C 4.742188 10.707031 4.265625 11.023438 3.75 11.25 Z M 3.75 11.25 "></path>
</g>
</svg></svg></g></g><defs><clipPath id="SvgjsClipPath1105"><rect width="1000" height="1000" x="0" y="0" rx="500" ry="500"></rect></clipPath></defs></svg></g></svg>