<svg width="19" height="20" viewBox="0 0 19 20" fill="none" xmlns="http://www.w3.org/2000/svg">
<path d="M5.9199 16C4.9079 16 4.0891 16.9 4.0891 18C4.0891 19.1 4.9079 20 5.9199 20C6.9319 20 7.7599 19.1 7.7599 18C7.7599 16.9 6.9319 16 5.9199 16ZM0.399902 0V2H2.2399L5.5519 9.59L4.3099 12.04C4.1627 12.32 4.0799 12.65 4.0799 13C4.0799 14.1 4.9079 15 5.9199 15H16.9599V13H6.3063C6.1775 13 6.0763 12.89 6.0763 12.75L6.1039 12.63L6.9319 11H13.7859C14.4759 11 15.0831 10.59 15.3959 9.97L18.6895 3.48C18.7631 3.34 18.7999 3.17 18.7999 3C18.7999 2.45 18.3859 2 17.8799 2H4.2731L3.4083 0H0.399902ZM15.1199 16C14.1079 16 13.2891 16.9 13.2891 18C13.2891 19.1 14.1079 20 15.1199 20C16.1319 20 16.9599 19.1 16.9599 18C16.9599 16.9 16.1319 16 15.1199 16Z" fill="black"/>
</svg>
