<svg width="20" height="20" viewBox="0 0 20 20" fill="none" xmlns="http://www.w3.org/2000/svg">
<path d="M10.4 0C5.10085 0 0.800049 4.3008 0.800049 9.6C0.800049 14.8992 5.10085 19.2 10.4 19.2C15.6992 19.2 20 14.8992 20 9.6C20 4.3008 15.6992 0 10.4 0ZM10.4 3.84C12.2528 3.84 13.76 5.3472 13.76 7.2C13.76 9.0528 12.2528 10.56 10.4 10.56C8.54725 10.56 7.04005 9.0528 7.04005 7.2C7.04005 5.3472 8.54725 3.84 10.4 3.84ZM10.4 17.28C8.45125 17.28 6.14725 16.4928 4.50565 14.5152C6.12805 13.248 8.17285 12.48 10.4 12.48C12.6272 12.48 14.672 13.248 16.2944 14.5152C14.6528 16.4928 12.3488 17.28 10.4 17.28Z" fill="black"/>
</svg>
