<svg width="19" height="20" viewBox="0 0 19 20" fill="none" xmlns="http://www.w3.org/2000/svg">
<path d="M13.1504 12.0755H12.3193L12.0247 11.7791C13.0557 10.5276 13.6764 8.90292 13.6764 7.13551C13.6764 3.19451 10.615 0 6.83819 0C3.06141 0 0 3.19451 0 7.13551C0 11.0765 3.06141 14.271 6.83819 14.271C8.53196 14.271 10.089 13.6233 11.2883 12.5475L11.5723 12.8549V13.7221L16.8325 19.2L18.4 17.5643L13.1504 12.0755ZM6.83819 12.0755C4.21864 12.0755 2.10406 9.86895 2.10406 7.13551C2.10406 4.40206 4.21864 2.19554 6.83819 2.19554C9.45775 2.19554 11.5723 4.40206 11.5723 7.13551C11.5723 9.86895 9.45775 12.0755 6.83819 12.0755Z" fill="black"/>
</svg>
